<svg width="189" height="179" viewBox="0 0 189 179" fill="none" xmlns="http://www.w3.org/2000/svg">
<mask id="path-1-inside-1_103_10" fill="white">
<path fill-rule="evenodd" clip-rule="evenodd" d="M28.4154 6.48786C2.43154 20.3037 -7.43256 52.5677 6.38328 78.5515L59.6539 178.739L59.8038 178.659L59.8835 178.809L160.071 125.539C186.055 111.723 195.919 79.4587 182.103 53.4749C168.287 27.4911 136.023 17.627 110.039 31.4428L103.798 34.7615L100.479 28.5199C86.6632 2.53612 54.3992 -7.32798 28.4154 6.48786Z"/>
</mask>
<path fill-rule="evenodd" clip-rule="evenodd" d="M28.4154 6.48786C2.43154 20.3037 -7.43256 52.5677 6.38328 78.5515L59.6539 178.739L59.8038 178.659L59.8835 178.809L160.071 125.539C186.055 111.723 195.919 79.4587 182.103 53.4749C168.287 27.4911 136.023 17.627 110.039 31.4428L103.798 34.7615L100.479 28.5199C86.6632 2.53612 54.3992 -7.32798 28.4154 6.48786Z" fill="url(#paint0_linear_103_10)"/>
<path d="M6.38328 78.5515L1.96854 80.8988L6.38328 78.5515ZM28.4154 6.48786L30.7627 10.9026L28.4154 6.48786ZM59.6539 178.739L55.2391 181.086L57.5866 185.501L62.0014 183.154L59.6539 178.739ZM59.8038 178.659L64.2186 176.312L61.8712 171.897L57.4563 174.245L59.8038 178.659ZM59.8835 178.809L55.4687 181.156L57.816 185.571L62.2309 183.224L59.8835 178.809ZM160.071 125.539L162.418 129.953L160.071 125.539ZM182.103 53.4749L186.518 51.1275L186.518 51.1275L182.103 53.4749ZM110.039 31.4428L112.387 35.8576L112.387 35.8576L110.039 31.4428ZM103.798 34.7615L99.383 37.1089L101.73 41.5236L106.145 39.1763L103.798 34.7615ZM100.479 28.5199L104.894 26.1726L104.894 26.1726L100.479 28.5199ZM10.798 76.2041C-1.72141 52.6585 7.21709 23.422 30.7627 10.9026L26.068 2.07312C-2.35401 17.1854 -13.1437 52.4768 1.96854 80.8988L10.798 76.2041ZM64.0686 176.392L10.798 76.2041L1.96854 80.8988L55.2391 181.086L64.0686 176.392ZM57.4563 174.245L57.3064 174.324L62.0014 183.154L62.1513 183.074L57.4563 174.245ZM55.389 181.006L55.4687 181.156L64.2983 176.462L64.2186 176.312L55.389 181.006ZM62.2309 183.224L162.418 129.953L157.724 121.124L57.5361 174.394L62.2309 183.224ZM162.418 129.953C190.84 114.841 201.63 79.5495 186.518 51.1275L177.688 55.8222C190.208 79.3679 181.269 108.604 157.724 121.124L162.418 129.953ZM186.518 51.1275C171.405 22.7055 136.114 11.9158 107.692 27.0281L112.387 35.8576C135.932 23.3381 165.169 32.2766 177.688 55.8222L186.518 51.1275ZM107.692 27.0281L101.45 30.3468L106.145 39.1763L112.387 35.8576L107.692 27.0281ZM96.0643 30.8673L99.383 37.1089L108.212 32.4142L104.894 26.1726L96.0643 30.8673ZM30.7627 10.9026C54.3083 -1.61683 83.5448 7.32167 96.0643 30.8673L104.894 26.1726C89.7815 -2.24943 54.49 -13.0391 26.068 2.07312L30.7627 10.9026Z" fill="white" mask="url(#path-1-inside-1_103_10)"/>
<path d="M6.38328 78.5515L1.96854 80.8988L6.38328 78.5515ZM28.4154 6.48786L30.7627 10.9026L28.4154 6.48786ZM59.6539 178.739L55.2391 181.086L57.5866 185.501L62.0014 183.154L59.6539 178.739ZM59.8038 178.659L64.2186 176.312L61.8712 171.897L57.4563 174.245L59.8038 178.659ZM59.8835 178.809L55.4687 181.156L57.816 185.571L62.2309 183.224L59.8835 178.809ZM160.071 125.539L162.418 129.953L160.071 125.539ZM182.103 53.4749L186.518 51.1275L186.518 51.1275L182.103 53.4749ZM110.039 31.4428L112.387 35.8576L112.387 35.8576L110.039 31.4428ZM103.798 34.7615L99.383 37.1089L101.73 41.5236L106.145 39.1763L103.798 34.7615ZM100.479 28.5199L104.894 26.1726L104.894 26.1726L100.479 28.5199ZM10.798 76.2041C-1.72141 52.6585 7.21709 23.422 30.7627 10.9026L26.068 2.07312C-2.35401 17.1854 -13.1437 52.4768 1.96854 80.8988L10.798 76.2041ZM64.0686 176.392L10.798 76.2041L1.96854 80.8988L55.2391 181.086L64.0686 176.392ZM57.4563 174.245L57.3064 174.324L62.0014 183.154L62.1513 183.074L57.4563 174.245ZM55.389 181.006L55.4687 181.156L64.2983 176.462L64.2186 176.312L55.389 181.006ZM62.2309 183.224L162.418 129.953L157.724 121.124L57.5361 174.394L62.2309 183.224ZM162.418 129.953C190.84 114.841 201.63 79.5495 186.518 51.1275L177.688 55.8222C190.208 79.3679 181.269 108.604 157.724 121.124L162.418 129.953ZM186.518 51.1275C171.405 22.7055 136.114 11.9158 107.692 27.0281L112.387 35.8576C135.932 23.3381 165.169 32.2766 177.688 55.8222L186.518 51.1275ZM107.692 27.0281L101.45 30.3468L106.145 39.1763L112.387 35.8576L107.692 27.0281ZM96.0643 30.8673L99.383 37.1089L108.212 32.4142L104.894 26.1726L96.0643 30.8673ZM30.7627 10.9026C54.3083 -1.61683 83.5448 7.32167 96.0643 30.8673L104.894 26.1726C89.7815 -2.24943 54.49 -13.0391 26.068 2.07312L30.7627 10.9026Z" fill="white" mask="url(#path-1-inside-1_103_10)"/>
<path d="M6.38328 78.5515L1.96854 80.8988L6.38328 78.5515ZM28.4154 6.48786L30.7627 10.9026L28.4154 6.48786ZM59.6539 178.739L55.2391 181.086L57.5866 185.501L62.0014 183.154L59.6539 178.739ZM59.8038 178.659L64.2186 176.312L61.8712 171.897L57.4563 174.245L59.8038 178.659ZM59.8835 178.809L55.4687 181.156L57.816 185.571L62.2309 183.224L59.8835 178.809ZM160.071 125.539L162.418 129.953L160.071 125.539ZM182.103 53.4749L186.518 51.1275L186.518 51.1275L182.103 53.4749ZM110.039 31.4428L112.387 35.8576L112.387 35.8576L110.039 31.4428ZM103.798 34.7615L99.383 37.1089L101.73 41.5236L106.145 39.1763L103.798 34.7615ZM100.479 28.5199L104.894 26.1726L104.894 26.1726L100.479 28.5199ZM10.798 76.2041C-1.72141 52.6585 7.21709 23.422 30.7627 10.9026L26.068 2.07312C-2.35401 17.1854 -13.1437 52.4768 1.96854 80.8988L10.798 76.2041ZM64.0686 176.392L10.798 76.2041L1.96854 80.8988L55.2391 181.086L64.0686 176.392ZM57.4563 174.245L57.3064 174.324L62.0014 183.154L62.1513 183.074L57.4563 174.245ZM55.389 181.006L55.4687 181.156L64.2983 176.462L64.2186 176.312L55.389 181.006ZM62.2309 183.224L162.418 129.953L157.724 121.124L57.5361 174.394L62.2309 183.224ZM162.418 129.953C190.84 114.841 201.63 79.5495 186.518 51.1275L177.688 55.8222C190.208 79.3679 181.269 108.604 157.724 121.124L162.418 129.953ZM186.518 51.1275C171.405 22.7055 136.114 11.9158 107.692 27.0281L112.387 35.8576C135.932 23.3381 165.169 32.2766 177.688 55.8222L186.518 51.1275ZM107.692 27.0281L101.45 30.3468L106.145 39.1763L112.387 35.8576L107.692 27.0281ZM96.0643 30.8673L99.383 37.1089L108.212 32.4142L104.894 26.1726L96.0643 30.8673ZM30.7627 10.9026C54.3083 -1.61683 83.5448 7.32167 96.0643 30.8673L104.894 26.1726C89.7815 -2.24943 54.49 -13.0391 26.068 2.07312L30.7627 10.9026Z" fill="white" mask="url(#path-1-inside-1_103_10)"/>
<path d="M6.38328 78.5515L1.96854 80.8988L6.38328 78.5515ZM28.4154 6.48786L30.7627 10.9026L28.4154 6.48786ZM59.6539 178.739L55.2391 181.086L57.5866 185.501L62.0014 183.154L59.6539 178.739ZM59.8038 178.659L64.2186 176.312L61.8712 171.897L57.4563 174.245L59.8038 178.659ZM59.8835 178.809L55.4687 181.156L57.816 185.571L62.2309 183.224L59.8835 178.809ZM160.071 125.539L162.418 129.953L160.071 125.539ZM182.103 53.4749L186.518 51.1275L186.518 51.1275L182.103 53.4749ZM110.039 31.4428L112.387 35.8576L112.387 35.8576L110.039 31.4428ZM103.798 34.7615L99.383 37.1089L101.73 41.5236L106.145 39.1763L103.798 34.7615ZM100.479 28.5199L104.894 26.1726L104.894 26.1726L100.479 28.5199ZM10.798 76.2041C-1.72141 52.6585 7.21709 23.422 30.7627 10.9026L26.068 2.07312C-2.35401 17.1854 -13.1437 52.4768 1.96854 80.8988L10.798 76.2041ZM64.0686 176.392L10.798 76.2041L1.96854 80.8988L55.2391 181.086L64.0686 176.392ZM57.4563 174.245L57.3064 174.324L62.0014 183.154L62.1513 183.074L57.4563 174.245ZM55.389 181.006L55.4687 181.156L64.2983 176.462L64.2186 176.312L55.389 181.006ZM62.2309 183.224L162.418 129.953L157.724 121.124L57.5361 174.394L62.2309 183.224ZM162.418 129.953C190.84 114.841 201.63 79.5495 186.518 51.1275L177.688 55.8222C190.208 79.3679 181.269 108.604 157.724 121.124L162.418 129.953ZM186.518 51.1275C171.405 22.7055 136.114 11.9158 107.692 27.0281L112.387 35.8576C135.932 23.3381 165.169 32.2766 177.688 55.8222L186.518 51.1275ZM107.692 27.0281L101.45 30.3468L106.145 39.1763L112.387 35.8576L107.692 27.0281ZM96.0643 30.8673L99.383 37.1089L108.212 32.4142L104.894 26.1726L96.0643 30.8673ZM30.7627 10.9026C54.3083 -1.61683 83.5448 7.32167 96.0643 30.8673L104.894 26.1726C89.7815 -2.24943 54.49 -13.0391 26.068 2.07312L30.7627 10.9026Z" fill="white" mask="url(#path-1-inside-1_103_10)"/>
<path d="M6.38328 78.5515L1.96854 80.8988L6.38328 78.5515ZM28.4154 6.48786L30.7627 10.9026L28.4154 6.48786ZM59.6539 178.739L55.2391 181.086L57.5866 185.501L62.0014 183.154L59.6539 178.739ZM59.8038 178.659L64.2186 176.312L61.8712 171.897L57.4563 174.245L59.8038 178.659ZM59.8835 178.809L55.4687 181.156L57.816 185.571L62.2309 183.224L59.8835 178.809ZM160.071 125.539L162.418 129.953L160.071 125.539ZM182.103 53.4749L186.518 51.1275L186.518 51.1275L182.103 53.4749ZM110.039 31.4428L112.387 35.8576L112.387 35.8576L110.039 31.4428ZM103.798 34.7615L99.383 37.1089L101.73 41.5236L106.145 39.1763L103.798 34.7615ZM100.479 28.5199L104.894 26.1726L104.894 26.1726L100.479 28.5199ZM10.798 76.2041C-1.72141 52.6585 7.21709 23.422 30.7627 10.9026L26.068 2.07312C-2.35401 17.1854 -13.1437 52.4768 1.96854 80.8988L10.798 76.2041ZM64.0686 176.392L10.798 76.2041L1.96854 80.8988L55.2391 181.086L64.0686 176.392ZM57.4563 174.245L57.3064 174.324L62.0014 183.154L62.1513 183.074L57.4563 174.245ZM55.389 181.006L55.4687 181.156L64.2983 176.462L64.2186 176.312L55.389 181.006ZM62.2309 183.224L162.418 129.953L157.724 121.124L57.5361 174.394L62.2309 183.224ZM162.418 129.953C190.84 114.841 201.63 79.5495 186.518 51.1275L177.688 55.8222C190.208 79.3679 181.269 108.604 157.724 121.124L162.418 129.953ZM186.518 51.1275C171.405 22.7055 136.114 11.9158 107.692 27.0281L112.387 35.8576C135.932 23.3381 165.169 32.2766 177.688 55.8222L186.518 51.1275ZM107.692 27.0281L101.45 30.3468L106.145 39.1763L112.387 35.8576L107.692 27.0281ZM96.0643 30.8673L99.383 37.1089L108.212 32.4142L104.894 26.1726L96.0643 30.8673ZM30.7627 10.9026C54.3083 -1.61683 83.5448 7.32167 96.0643 30.8673L104.894 26.1726C89.7815 -2.24943 54.49 -13.0391 26.068 2.07312L30.7627 10.9026Z" fill="white" mask="url(#path-1-inside-1_103_10)"/>
<defs>
<linearGradient id="paint0_linear_103_10" x1="200.841" y1="23.9872" x2="25.1262" y2="144.829" gradientUnits="userSpaceOnUse">
<stop stop-color="white"/>
<stop offset="1" stop-color="#999999"/>
</linearGradient>
</defs>
</svg>
