<svg width="442" height="442" viewBox="0 0 442 442" fill="none" xmlns="http://www.w3.org/2000/svg">
<path d="M223.256 10.5335L281.226 132.019C282.32 134.31 284.498 135.893 287.015 136.225L420.468 153.816C422.553 154.091 423.388 156.66 421.863 158.108L324.237 250.782C322.396 252.53 321.564 255.091 322.026 257.587L346.534 389.945C346.917 392.012 344.732 393.6 342.884 392.597L224.578 328.387C222.346 327.176 219.654 327.176 217.422 328.387L99.1163 392.597C97.2681 393.6 95.0826 392.012 95.4655 389.945L119.974 257.587C120.436 255.091 119.604 252.53 117.763 250.782L20.1372 158.108C18.6121 156.66 19.4469 154.091 21.5317 153.816L154.985 136.225C157.502 135.893 159.68 134.31 160.774 132.019L218.744 10.5335C219.649 8.63567 222.351 8.63568 223.256 10.5335Z" fill="url(#paint0_linear_3_8)" stroke="white" stroke-width="5"/>
<defs>
<linearGradient id="paint0_linear_3_8" x1="337.5" y1="101" x2="70.5" y2="365.5" gradientUnits="userSpaceOnUse">
<stop stop-color="#D9D9D9"/>
<stop offset="1" stop-color="#737373"/>
</linearGradient>
</defs>
</svg>
