<svg width="242" height="154" viewBox="0 0 242 154" fill="none" xmlns="http://www.w3.org/2000/svg">
<mask id="mask0_6_57" style="mask-type:alpha" maskUnits="userSpaceOnUse" x="0" y="0" width="242" height="154">
<rect width="242" height="154" fill="white"/>
</mask>
<g mask="url(#mask0_6_57)">
<mask id="path-1-inside-1_6_57" fill="white">
<path fill-rule="evenodd" clip-rule="evenodd" d="M47.1228 19.2952C21.3959 35.5596 13.725 69.6003 29.9894 95.3272L92.701 194.524L92.8495 194.43L92.9433 194.579L192.14 131.867C217.867 115.603 225.538 81.562 209.274 55.8351C193.009 30.1082 158.969 22.4373 133.242 38.7016L127.062 42.6086L123.155 36.4286C106.89 10.7017 72.8497 3.03081 47.1228 19.2952Z"/>
</mask>
<path fill-rule="evenodd" clip-rule="evenodd" d="M47.1228 19.2952C21.3959 35.5596 13.725 69.6003 29.9894 95.3272L92.701 194.524L92.8495 194.43L92.9433 194.579L192.14 131.867C217.867 115.603 225.538 81.562 209.274 55.8351C193.009 30.1082 158.969 22.4373 133.242 38.7016L127.062 42.6086L123.155 36.4286C106.89 10.7017 72.8497 3.03081 47.1228 19.2952Z" fill="url(#paint0_linear_6_57)"/>
<path d="M29.9894 95.3272L25.7631 97.999L25.7631 97.999L29.9894 95.3272ZM47.1228 19.2952L44.451 15.0689L44.451 15.0689L47.1228 19.2952ZM92.701 194.524L88.4747 197.196L91.1465 201.422L95.3728 198.75L92.701 194.524ZM92.8495 194.43L97.0758 191.759L94.404 187.532L90.1776 190.204L92.8495 194.43ZM92.9433 194.579L88.717 197.25L91.3888 201.477L95.6152 198.805L92.9433 194.579ZM192.14 131.867L189.468 127.641L189.468 127.641L192.14 131.867ZM133.242 38.7016L135.913 42.9279L135.913 42.9279L133.242 38.7016ZM127.062 42.6086L122.835 45.2804L125.507 49.5067L129.734 46.8348L127.062 42.6086ZM123.155 36.4286L127.381 33.7568L127.381 33.7568L123.155 36.4286ZM34.2156 92.6554C19.4269 69.2626 26.4018 38.3103 49.7946 23.5215L44.451 15.0689C16.3899 32.8089 8.0231 69.938 25.7631 97.999L34.2156 92.6554ZM96.9273 191.852L34.2156 92.6554L25.7631 97.999L88.4747 197.196L96.9273 191.852ZM90.1776 190.204L90.0292 190.298L95.3728 198.75L95.5213 198.656L90.1776 190.204ZM88.6231 197.102L88.717 197.25L97.1697 191.907L97.0758 191.759L88.6231 197.102ZM95.6152 198.805L194.812 136.093L189.468 127.641L90.2715 190.352L95.6152 198.805ZM194.812 136.093C222.873 118.353 231.24 81.2243 213.5 53.1633L205.047 58.5069C219.836 81.8997 212.861 112.852 189.468 127.641L194.812 136.093ZM213.5 53.1633C195.76 25.1022 158.631 16.7354 130.57 34.4754L135.913 42.9279C159.306 28.1391 190.259 35.1141 205.047 58.5069L213.5 53.1633ZM130.57 34.4754L124.39 38.3823L129.734 46.8348L135.913 42.9279L130.57 34.4754ZM118.929 39.1004L122.835 45.2804L131.288 39.9368L127.381 33.7568L118.929 39.1004ZM49.7946 23.5215C73.1874 8.73268 104.14 15.7076 118.929 39.1004L127.381 33.7568C109.641 5.69576 72.512 -2.67107 44.451 15.0689L49.7946 23.5215Z" fill="white" mask="url(#path-1-inside-1_6_57)"/>
<path d="M29.9894 95.3272L25.7631 97.999L25.7631 97.999L29.9894 95.3272ZM47.1228 19.2952L44.451 15.0689L44.451 15.0689L47.1228 19.2952ZM92.701 194.524L88.4747 197.196L91.1465 201.422L95.3728 198.75L92.701 194.524ZM92.8495 194.43L97.0758 191.759L94.404 187.532L90.1776 190.204L92.8495 194.43ZM92.9433 194.579L88.717 197.25L91.3888 201.477L95.6152 198.805L92.9433 194.579ZM192.14 131.867L189.468 127.641L189.468 127.641L192.14 131.867ZM133.242 38.7016L135.913 42.9279L135.913 42.9279L133.242 38.7016ZM127.062 42.6086L122.835 45.2804L125.507 49.5067L129.734 46.8348L127.062 42.6086ZM123.155 36.4286L127.381 33.7568L127.381 33.7568L123.155 36.4286ZM34.2156 92.6554C19.4269 69.2626 26.4018 38.3103 49.7946 23.5215L44.451 15.0689C16.3899 32.8089 8.0231 69.938 25.7631 97.999L34.2156 92.6554ZM96.9273 191.852L34.2156 92.6554L25.7631 97.999L88.4747 197.196L96.9273 191.852ZM90.1776 190.204L90.0292 190.298L95.3728 198.75L95.5213 198.656L90.1776 190.204ZM88.6231 197.102L88.717 197.25L97.1697 191.907L97.0758 191.759L88.6231 197.102ZM95.6152 198.805L194.812 136.093L189.468 127.641L90.2715 190.352L95.6152 198.805ZM194.812 136.093C222.873 118.353 231.24 81.2243 213.5 53.1633L205.047 58.5069C219.836 81.8997 212.861 112.852 189.468 127.641L194.812 136.093ZM213.5 53.1633C195.76 25.1022 158.631 16.7354 130.57 34.4754L135.913 42.9279C159.306 28.1391 190.259 35.1141 205.047 58.5069L213.5 53.1633ZM130.57 34.4754L124.39 38.3823L129.734 46.8348L135.913 42.9279L130.57 34.4754ZM118.929 39.1004L122.835 45.2804L131.288 39.9368L127.381 33.7568L118.929 39.1004ZM49.7946 23.5215C73.1874 8.73268 104.14 15.7076 118.929 39.1004L127.381 33.7568C109.641 5.69576 72.512 -2.67107 44.451 15.0689L49.7946 23.5215Z" fill="white" mask="url(#path-1-inside-1_6_57)"/>
<path d="M29.9894 95.3272L25.7631 97.999L25.7631 97.999L29.9894 95.3272ZM47.1228 19.2952L44.451 15.0689L44.451 15.0689L47.1228 19.2952ZM92.701 194.524L88.4747 197.196L91.1465 201.422L95.3728 198.75L92.701 194.524ZM92.8495 194.43L97.0758 191.759L94.404 187.532L90.1776 190.204L92.8495 194.43ZM92.9433 194.579L88.717 197.25L91.3888 201.477L95.6152 198.805L92.9433 194.579ZM192.14 131.867L189.468 127.641L189.468 127.641L192.14 131.867ZM133.242 38.7016L135.913 42.9279L135.913 42.9279L133.242 38.7016ZM127.062 42.6086L122.835 45.2804L125.507 49.5067L129.734 46.8348L127.062 42.6086ZM123.155 36.4286L127.381 33.7568L127.381 33.7568L123.155 36.4286ZM34.2156 92.6554C19.4269 69.2626 26.4018 38.3103 49.7946 23.5215L44.451 15.0689C16.3899 32.8089 8.0231 69.938 25.7631 97.999L34.2156 92.6554ZM96.9273 191.852L34.2156 92.6554L25.7631 97.999L88.4747 197.196L96.9273 191.852ZM90.1776 190.204L90.0292 190.298L95.3728 198.75L95.5213 198.656L90.1776 190.204ZM88.6231 197.102L88.717 197.25L97.1697 191.907L97.0758 191.759L88.6231 197.102ZM95.6152 198.805L194.812 136.093L189.468 127.641L90.2715 190.352L95.6152 198.805ZM194.812 136.093C222.873 118.353 231.24 81.2243 213.5 53.1633L205.047 58.5069C219.836 81.8997 212.861 112.852 189.468 127.641L194.812 136.093ZM213.5 53.1633C195.76 25.1022 158.631 16.7354 130.57 34.4754L135.913 42.9279C159.306 28.1391 190.259 35.1141 205.047 58.5069L213.5 53.1633ZM130.57 34.4754L124.39 38.3823L129.734 46.8348L135.913 42.9279L130.57 34.4754ZM118.929 39.1004L122.835 45.2804L131.288 39.9368L127.381 33.7568L118.929 39.1004ZM49.7946 23.5215C73.1874 8.73268 104.14 15.7076 118.929 39.1004L127.381 33.7568C109.641 5.69576 72.512 -2.67107 44.451 15.0689L49.7946 23.5215Z" fill="white" mask="url(#path-1-inside-1_6_57)"/>
<path d="M29.9894 95.3272L25.7631 97.999L25.7631 97.999L29.9894 95.3272ZM47.1228 19.2952L44.451 15.0689L44.451 15.0689L47.1228 19.2952ZM92.701 194.524L88.4747 197.196L91.1465 201.422L95.3728 198.75L92.701 194.524ZM92.8495 194.43L97.0758 191.759L94.404 187.532L90.1776 190.204L92.8495 194.43ZM92.9433 194.579L88.717 197.25L91.3888 201.477L95.6152 198.805L92.9433 194.579ZM192.14 131.867L189.468 127.641L189.468 127.641L192.14 131.867ZM133.242 38.7016L135.913 42.9279L135.913 42.9279L133.242 38.7016ZM127.062 42.6086L122.835 45.2804L125.507 49.5067L129.734 46.8348L127.062 42.6086ZM123.155 36.4286L127.381 33.7568L127.381 33.7568L123.155 36.4286ZM34.2156 92.6554C19.4269 69.2626 26.4018 38.3103 49.7946 23.5215L44.451 15.0689C16.3899 32.8089 8.0231 69.938 25.7631 97.999L34.2156 92.6554ZM96.9273 191.852L34.2156 92.6554L25.7631 97.999L88.4747 197.196L96.9273 191.852ZM90.1776 190.204L90.0292 190.298L95.3728 198.75L95.5213 198.656L90.1776 190.204ZM88.6231 197.102L88.717 197.25L97.1697 191.907L97.0758 191.759L88.6231 197.102ZM95.6152 198.805L194.812 136.093L189.468 127.641L90.2715 190.352L95.6152 198.805ZM194.812 136.093C222.873 118.353 231.24 81.2243 213.5 53.1633L205.047 58.5069C219.836 81.8997 212.861 112.852 189.468 127.641L194.812 136.093ZM213.5 53.1633C195.76 25.1022 158.631 16.7354 130.57 34.4754L135.913 42.9279C159.306 28.1391 190.259 35.1141 205.047 58.5069L213.5 53.1633ZM130.57 34.4754L124.39 38.3823L129.734 46.8348L135.913 42.9279L130.57 34.4754ZM118.929 39.1004L122.835 45.2804L131.288 39.9368L127.381 33.7568L118.929 39.1004ZM49.7946 23.5215C73.1874 8.73268 104.14 15.7076 118.929 39.1004L127.381 33.7568C109.641 5.69576 72.512 -2.67107 44.451 15.0689L49.7946 23.5215Z" fill="white" mask="url(#path-1-inside-1_6_57)"/>
<path d="M29.9894 95.3272L25.7631 97.999L25.7631 97.999L29.9894 95.3272ZM47.1228 19.2952L44.451 15.0689L44.451 15.0689L47.1228 19.2952ZM92.701 194.524L88.4747 197.196L91.1465 201.422L95.3728 198.75L92.701 194.524ZM92.8495 194.43L97.0758 191.759L94.404 187.532L90.1776 190.204L92.8495 194.43ZM92.9433 194.579L88.717 197.25L91.3888 201.477L95.6152 198.805L92.9433 194.579ZM192.14 131.867L189.468 127.641L189.468 127.641L192.14 131.867ZM133.242 38.7016L135.913 42.9279L135.913 42.9279L133.242 38.7016ZM127.062 42.6086L122.835 45.2804L125.507 49.5067L129.734 46.8348L127.062 42.6086ZM123.155 36.4286L127.381 33.7568L127.381 33.7568L123.155 36.4286ZM34.2156 92.6554C19.4269 69.2626 26.4018 38.3103 49.7946 23.5215L44.451 15.0689C16.3899 32.8089 8.0231 69.938 25.7631 97.999L34.2156 92.6554ZM96.9273 191.852L34.2156 92.6554L25.7631 97.999L88.4747 197.196L96.9273 191.852ZM90.1776 190.204L90.0292 190.298L95.3728 198.75L95.5213 198.656L90.1776 190.204ZM88.6231 197.102L88.717 197.25L97.1697 191.907L97.0758 191.759L88.6231 197.102ZM95.6152 198.805L194.812 136.093L189.468 127.641L90.2715 190.352L95.6152 198.805ZM194.812 136.093C222.873 118.353 231.24 81.2243 213.5 53.1633L205.047 58.5069C219.836 81.8997 212.861 112.852 189.468 127.641L194.812 136.093ZM213.5 53.1633C195.76 25.1022 158.631 16.7354 130.57 34.4754L135.913 42.9279C159.306 28.1391 190.259 35.1141 205.047 58.5069L213.5 53.1633ZM130.57 34.4754L124.39 38.3823L129.734 46.8348L135.913 42.9279L130.57 34.4754ZM118.929 39.1004L122.835 45.2804L131.288 39.9368L127.381 33.7568L118.929 39.1004ZM49.7946 23.5215C73.1874 8.73268 104.14 15.7076 118.929 39.1004L127.381 33.7568C109.641 5.69576 72.512 -2.67107 44.451 15.0689L49.7946 23.5215Z" fill="white" mask="url(#path-1-inside-1_6_57)"/>
</g>
<defs>
<linearGradient id="paint0_linear_6_57" x1="226.312" y1="23.9695" x2="54.4607" y2="162.229" gradientUnits="userSpaceOnUse">
<stop stop-color="white"/>
<stop offset="1" stop-color="#999999"/>
</linearGradient>
</defs>
</svg>
